<?xml version="1.0" encoding="utf-8"?>
<!-- Generator: Adobe Illustrator 27.0.0, SVG Export Plug-In . SVG Version: 6.00 Build 0)  -->
<svg version="1.1" id="visual" xmlns="http://www.w3.org/2000/svg" xmlns:xlink="http://www.w3.org/1999/xlink" x="0px" y="0px"
	 viewBox="0 0 960 100" style="enable-background:new 0 0 960 100;" xml:space="preserve">
<style type="text/css">
	.st0{fill:#D32F2F;}
</style>
<path class="st0" d="M960,42.5l-20,2.7c-20,2.6-60,8-100,10.5s-80,2.1-120-0.2s-80-6.7-120-9.3c-40-2.7-80-3.7-120-3.2
	s-80,2.5-120,4.3c-40,1.9-80,3.5-120,4.2s-80,0.3-120,0.8s-80,1.9-100,2.5L0,55.5l0-56h20c20,0,60,0,100,0s80,0,120,0s80,0,120,0
	s80,0,120,0s80,0,120,0s80,0,120,0s80,0,120,0s80,0,100,0h20V42.5z"/>
</svg>
