<svg id="visual" viewBox="0 0 960 200" width="960" height="200" xmlns="http://www.w3.org/2000/svg" xmlns:xlink="http://www.w3.org/1999/xlink" version="1.1"><path d="M0 88L26.7 93C53.3 98 106.7 108 160 105.7C213.3 103.3 266.7 88.7 320 79.2C373.3 69.7 426.7 65.3 480 69.8C533.3 74.3 586.7 87.7 640 97.5C693.3 107.3 746.7 113.7 800 110C853.3 106.3 906.7 92.7 933.3 85.8L960 79L960 201L933.3 201C906.7 201 853.3 201 800 201C746.7 201 693.3 201 640 201C586.7 201 533.3 201 480 201C426.7 201 373.3 201 320 201C266.7 201 213.3 201 160 201C106.7 201 53.3 201 26.7 201L0 201Z" fill="#d32f2f" stroke-linecap="round" stroke-linejoin="miter"></path></svg>