<svg id="visual" viewBox="0 0 960 100" width="960" height="100" xmlns="http://www.w3.org/2000/svg" xmlns:xlink="http://www.w3.org/1999/xlink" version="1.1"><path d="M0 58L20 55.3C40 52.7 80 47.3 120 44.8C160 42.3 200 42.7 240 45C280 47.3 320 51.7 360 54.3C400 57 440 58 480 57.5C520 57 560 55 600 53.2C640 51.3 680 49.7 720 49C760 48.3 800 48.7 840 48.2C880 47.7 920 46.3 940 45.7L960 45L960 101L940 101C920 101 880 101 840 101C800 101 760 101 720 101C680 101 640 101 600 101C560 101 520 101 480 101C440 101 400 101 360 101C320 101 280 101 240 101C200 101 160 101 120 101C80 101 40 101 20 101L0 101Z" fill="#d32f2f" stroke-linecap="round" stroke-linejoin="miter"></path></svg>