<svg id="visual" viewBox="0 0 960 300" width="960" height="300" xmlns="http://www.w3.org/2000/svg" xmlns:xlink="http://www.w3.org/1999/xlink" version="1.1"><rect x="0" y="0" width="960" height="300" fill="#eeeeee"></rect><path d="M0 171L26.7 165.5C53.3 160 106.7 149 160 144.7C213.3 140.3 266.7 142.7 320 147.8C373.3 153 426.7 161 480 160.5C533.3 160 586.7 151 640 152.3C693.3 153.7 746.7 165.3 800 165C853.3 164.7 906.7 152.3 933.3 146.2L960 140L960 301L933.3 301C906.7 301 853.3 301 800 301C746.7 301 693.3 301 640 301C586.7 301 533.3 301 480 301C426.7 301 373.3 301 320 301C266.7 301 213.3 301 160 301C106.7 301 53.3 301 26.7 301L0 301Z" fill="#d32f2f" stroke-linecap="round" stroke-linejoin="miter"></path></svg>